<svg width="20" height="20" viewBox="0 0 20 20" fill="none" xmlns="http://www.w3.org/2000/svg">
<path d="M10 11.875C13.2548 11.8752 16.1446 13.9581 17.1738 17.0459L17.4678 17.9277L16.2812 18.3223L15.9883 17.4414C15.1292 14.864 12.7168 13.1252 10 13.125C7.28307 13.125 4.87089 14.8639 4.01172 17.4414L3.71777 18.3223L2.53125 17.9277L2.8252 17.0459C3.85451 13.958 6.74503 11.875 10 11.875ZM10 1.66699C12.3009 1.66722 14.1658 3.53211 14.166 5.83301C14.166 8.13406 12.301 9.99978 10 10C7.69881 10 5.83301 8.13419 5.83301 5.83301C5.83318 3.53197 7.69892 1.66699 10 1.66699ZM10 2.91699C8.38928 2.91699 7.08318 4.22233 7.08301 5.83301C7.08301 7.44384 8.38917 8.75 10 8.75C11.6106 8.74978 12.916 7.4437 12.916 5.83301C12.9158 4.22247 11.6105 2.91722 10 2.91699Z" fill="#1D1D1D"/>
</svg>
