<svg width="107" height="17" viewBox="0 0 107 17" fill="none" xmlns="http://www.w3.org/2000/svg">
<path d="M8.17969 0C11.2409 3.56081e-05 13.9517 1.65801 15.3389 4.20898L12.5645 5.80371C11.7513 4.14554 10.1249 3.14066 8.17969 3.14062C5.3735 3.14062 3.25302 5.22974 3.25293 8.24316C3.25293 11.2726 5.37344 13.3457 8.17969 13.3457C10.1249 13.3457 11.7513 12.3408 12.5645 10.6826L15.3389 12.2773C13.9517 14.8285 11.241 16.4863 8.17969 16.4863C3.69925 16.4863 0 13.0584 0 8.24316C0.000103605 3.428 3.69931 0 8.17969 0ZM89.1299 3.31641H80.8389V6.68066H87.998V9.59863H80.8389V13.1865H89.5771V16.1045H77.9375V0.398438H89.1299V3.31641ZM97.7568 12.9473H106.048V16.0879H94.6152V0.398438H97.7568V12.9473ZM22.3867 6.21875H30.2314V0.398438H33.3721V16.0723H30.2314V9.35938H22.3867V16.0723H19.2451V0.398438H22.3867V6.21875ZM54.6426 16.0723H51.2139L49.668 12.4844H41.4717L39.9258 16.0723H36.4971L43.4336 0.398438H47.6904L54.6426 16.0723ZM68.96 10.7949V0.398438H71.8779V16.0723H69.0879L60.6846 3.73145V16.0723H57.7676V0.398438H61.9131L68.96 10.7949ZM42.748 9.58301H48.4238L45.5859 2.98145L42.748 9.58301Z" fill="black"/>
</svg>
