<svg width="20" height="20" viewBox="0 0 20 20" fill="none" xmlns="http://www.w3.org/2000/svg">
<path fill-rule="evenodd" clip-rule="evenodd" d="M13.0853 13.8418C11.876 15.0711 10.1933 15.8333 8.33268 15.8333C4.65078 15.8333 1.66602 12.8486 1.66602 9.16667C1.66602 5.48477 4.65078 2.5 8.33268 2.5C12.0146 2.5 14.9993 5.48477 14.9993 9.16667C14.9993 10.5382 14.5852 11.8129 13.8751 12.8727L18.318 16.6048L17.514 17.5619L13.0853 13.8418ZM13.7493 9.16667C13.7493 12.1582 11.3242 14.5833 8.33268 14.5833C5.34114 14.5833 2.91602 12.1582 2.91602 9.16667C2.91602 6.17512 5.34114 3.75 8.33268 3.75C11.3242 3.75 13.7493 6.17512 13.7493 9.16667Z" fill="#1D1D1D"/>
</svg>
